<svg viewBox="0 0 660.46 1206.46" xmlns="http://www.w3.org/2000/svg"><g id="calves" class="bodymap text-mw-gray active:text-mw-red-700 lg:hover:text-mw-red-100"><path d="M475.03,965.71v.08c-1.41,26.22-4.62,53.06-17.62,53.83-7.32.45-13.09-11.27-17.28-19.82-3.48-7.09-5.78-11.78-9.14-11.49-4.23.36-4.81,5.96-5.54,13.06-.9,8.78-2.02,19.7-10.11,21.38-3.17.66-12.83,2.66-21.97-20.97,0-.02,0-.04-.02-.06-2.96-9.62-3.27-22.92,1.1-64.53.81-.12,1.45-.8,1.49-1.64.39-8.56,3.78-14.95,9.32-17.55,4.9-2.3,10.93-1.39,16.12,2.44,7.63,5.62,16.5-2.93,24.34-10.47,5.12-4.93,10.91-10.52,14.28-9.61,1.49.4,2.61,2.19,3.41,4.19,0,.03.02.06.03.09.28.85.56,1.7.85,2.57,4.88,14.97,10.31,32.88,10.74,58.5Z" fill="#E5EBE7"></path><path d="M267.16,1001.72s-.02.04-.02.06c-9.13,23.64-18.78,21.64-21.97,20.97-8.09-1.68-9.21-12.61-10.11-21.38-.72-7.1-1.3-12.7-5.53-13.06-3.37-.29-5.66,4.4-9.14,11.49-4.2,8.54-9.91,20.27-17.29,19.82-12.98-.77-16.19-27.59-17.62-53.8v-.04c.42-25.66,5.86-43.61,10.75-58.58.29-.87.57-1.72.85-2.57,0-.03.02-.06.03-.09.8-1.99,1.92-3.79,3.41-4.19,3.37-.91,9.16,4.68,14.28,9.61,7.83,7.54,16.72,16.09,24.34,10.47,5.2-3.83,11.23-4.74,16.12-2.44,5.53,2.6,8.93,8.99,9.32,17.55.04.84.67,1.52,1.48,1.64,4.38,41.61,4.07,54.93,1.1,64.53Z" fill="#E5EBE7"></path></g></svg>
